<svg width="800" height="600" xmlns="http://www.w3.org/2000/svg">

 <g>
  <title>Layer 1</title>
  <path d="m372.59998,110.99999c3,3 7.32144,7.80901 9,11c5.01413,9.53199 12.38477,23.38775 20,58.00001c5.86496,26.65712 5.02771,53.00146 4,71.99998c-0.97375,18.00145 -3.78772,42.3849 -11,63.00002c-4.29297,12.27072 -14.50031,18.82733 -25,24c-11.69608,5.76208 -19.38623,16.56543 -33,21c-14.54486,4.73785 -30.93835,5.45291 -44,7c-11.95801,1.41635 -24.06238,2.57889 -36,1c-11.0838,-1.46594 -19.23886,-8.73907 -27.99998,-17c-11.31836,-10.67215 -19.82292,-23.54117 -24,-32c-3.78302,-7.66086 -3.67534,-17.13229 -1,-29c3.20197,-14.2038 11.36382,-24.14038 25,-31c9.62154,-4.84007 20,-8.00002 31.99998,-8.00002c18,0 37.97845,3.13979 57,6.00002c13.98492,2.10287 23.87592,3.99658 36,5c12.95572,1.07224 29.0145,0.08569 47,-3c17.0141,-2.91904 36.07767,-3.01364 55,-5.00002c19.13028,-2.00821 36.56882,-8.05078 55,-15c15.68524,-5.91389 32.90497,-10.9955 43,-21c11.09497,-10.99548 17,-25.99998 23,-37.99998l4,-5l2,-4l1,0" id="svg_2" stroke="#000" fill="none"/>
  <path d="m317.59998,113.99999c2,1 10,1 24,1c23,0 50.06918,-3.5116 80,-8c30.07751,-4.5104 52,-8 72,-8l15,0l12,0l4,0" id="svg_3" stroke="#000" fill="none"/>
 </g>
</svg>